:FULLY-SPECIFIED
:FORCE-ALL-JOINTS-BE-3DOF
:DEGREES
501
root 10.604 16.9055 34.1124 5.80635 4.67113 5.24162
lfemur 19.5569 1.32626 -28.0268
ltibia -3.60463e-14 0 0
lfoot -16.4401 4.20067 -0.000943602
ltoes -4.60109 0 0
rfemur -42.5534 8.98274 10.8735
rtibia 27.8298 -0 0
rfoot -24.5665 -13.2811 0
rtoes -26.2908 0 0
lowerback -7.92676 -5.35617 -6.17273
upperback 0.801344 -6.62611 1.45469
thorax 6.16211 -3.49468 4.0598
lowerneck -23.7351 -2.62879 -10.0448
upperneck 23.6809 -3.22533 11.2668
head 12.0942 -0.883182 5.44019
lclavicle 3.21367e-15 2.12039e-15 0
lhumerus -15.6276 -25.5443 88.2805
lradius 35.1483 -0 0
lwrist 6.92555 0 0
lhand -16.9049 -27.0269 -0.000907767
lfingers 7.12502 0 0
lthumb 9.32679 2.73813 -0.00227779
rclavicle 3.21367e-15 2.12039e-15 0
rhumerus -48.9524 5.28435 -83.566
rradius 32.0287 -0 0
rwrist -16.3044 0 0
rhand -29.321 -22.1987 -0.0170032
rfingers 7.12502 0 0
rthumb -2.66174 -52.161 -0.0164597
502
root 10.5791 16.8843 34.2874 5.89816 4.79668 5.14434
lfemur 20.1013 1.14732 -27.7284
ltibia -2.70347e-14 0 0
lfoot -16.2523 4.20048 -0.00147971
ltoes -5.71877 0 0
rfemur -42.5755 8.30429 11.5595
rtibia 28.6098 -0 0
rfoot -24.5665 -13.2811 0
rtoes -26.2908 0 0
lowerback -7.87642 -5.35694 -6.05126
upperback 0.670182 -6.64614 1.49402
thorax 5.98711 -3.49439 4.04303
lowerneck -23.676 -2.65775 -10.1489
upperneck 23.6033 -3.23871 11.3083
head 12.057 -0.894439 5.46786
lclavicle 1.60518e-14 -1.19268e-15 0
lhumerus -16.4708 -25.6734 88.8668
lradius 35.0457 -0 0
lwrist 7.44878 0 0
lhand -15.928 -26.9704 -0.0011745
lfingers 7.12502 0 0
lthumb 10.2692 2.74788 -0.00286149
rclavicle 1.60518e-14 -1.19268e-15 0
rhumerus -49.1582 4.9342 -83.3318
rradius 31.4429 -0 0
rwrist -15.9446 0 0
rhand -29.0216 -23.5892 -0.0209372
rfingers 7.12502 0 0
rthumb -2.37258 -53.5547 -0.0202687
503
root 10.5542 16.863 34.4624 5.97735 4.91842 5.02612
lfemur 20.6584 0.973629 -27.4081
ltibia -1.80231e-14 0 0
lfoot -15.9881 4.21103 -0.00164945
ltoes -6.90115 0 0
rfemur -42.6059 7.63206 12.2668
rtibia 29.4727 -0 0
rfoot -24.5665 -13.2811 0
rtoes -26.2908 0 0
lowerback -7.7846 -5.34957 -5.90075
upperback 0.518353 -6.66065 1.53625
thorax 5.76341 -3.48927 4.01875
lowerneck -23.614 -2.68423 -10.2465
upperneck 23.5446 -3.25014 11.3406
head 12.0261 -0.905625 5.49194
lclavicle 2.889e-14 -4.50576e-15 0
lhumerus -17.3803 -25.7182 89.4798
lradius 34.8928 -0 0
lwrist 7.9174 0 0
lhand -14.8563 -26.8824 -0.00133418
lfingers 7.12502 0 0
lthumb 11.303 2.78371 -0.00271211
rclavicle 2.889e-14 -4.50576e-15 0
rhumerus -49.3922 4.56961 -83.0807
rradius 30.8483 -0 0
rwrist -15.5516 0 0
rhand -28.7189 -24.9646 -0.017064
rfingers 7.12502 0 0
rthumb -2.08016 -54.9333 -0.0165201
504
root 10.5294 16.8417 34.6374 6.04103 5.00675 4.88442
lfemur 21.2237 0.836205 -27.0699
ltibia -9.01157e-15 0 0
lfoot -15.6302 4.2335 -0.00120991
ltoes -8.16363 0 0
rfemur -42.6385 6.97791 12.9895
rtibia 30.3637 -0 0
rfoot -24.5665 -13.2811 0
rtoes -26.2908 0 0
lowerback -7.67146 -5.33063 -5.72867
upperback 0.369151 -6.66257 1.58529
thorax 5.52774 -3.47768 3.99287
lowerneck -23.5819 -2.70708 -10.3187
upperneck 23.4965 -3.2579 11.352
head 12.0037 -0.914847 5.50495
lclavicle 4.17282e-14 -7.81883e-15 0
lhumerus -18.3099 -25.6239 90.0896
lradius 34.6672 -0 0
lwrist 8.21335 0 0
lhand -13.829 -26.7639 -0.00120752
lfingers 7.12502 0 0
lthumb 12.2938 2.85018 -0.001816
rclavicle 4.17282e-14 -7.81883e-15 0
rhumerus -49.6079 4.18918 -82.797
rradius 30.2529 -0 0
rwrist -15.1103 0 0
rhand -28.4672 -26.0613 -0.0079344
rfingers 7.12502 0 0
rthumb -1.8371 -56.0326 -0.00768217
